# xmcd CD database file
#
# Track frame offsets:
#	150
#	9729
#	20364
#	34480
#	44953
#	58347
#	70208
#	80812
#	92028
#	104566
#	116011
#	128180
#	141945
#	155663
#	169678
#	181056
#	195420
#	205750
#	219381
#	232731
#
# Disc length: 3250 seconds
#
# Revision: 2
# Processed by: cddbd v1.5.1PL0 Copyright (c) Steve Scherf et al.
# Submitted via: CDex 1.60beta1-cs1
#
DISCID=250cb014
DTITLE=Nat King Cole - Blue Lou CD3
DYEAR=1900
DGENRE=Jazz
TTITLE0=Rosetta
TTITLE1=That's My Girl
TTITLE2=Summer Is A Comin'in
TTITLE3=Bring Another Drink
TTITLE4=Funny (Not Much)
TTITLE5=Everyone Is Sayin' Hello Again
TTITLE6=It's Crazy
TTITLE7=Katusha
TTITLE8=After You Get What You Want, You Don't Want It
TTITLE9=Orange Colored Sky
TTITLE10=Destination Moon
TTITLE11=You Call It Madness
TTITLE12=Look What You've Done To Me
TTITLE13=I Just Can't See For Looking
TTITLE14=Honeysuckle Rose
TTITLE15=I'm In The Mood For Love
TTITLE16=Where Were You
TTITLE17=What Can I Say After I Say I'm Sorry
TTITLE18=Vom, Vim, Veedle
TTITLE19=This Can't Be Love
EXTD=
EXTT0=
EXTT1=
EXTT2=
EXTT3=
EXTT4=
EXTT5=
EXTT6=
EXTT7=
EXTT8=
EXTT9=
EXTT10=
EXTT11=
EXTT12=
EXTT13=
EXTT14=
EXTT15=
EXTT16=
EXTT17=
EXTT18=
EXTT19=
PLAYORDER=
